HIERARCHY
ROOT Hips
{
  OFFSET 0 0 0
  CHANNELS 6 Xposition Yposition Zposition Zrotation Xrotation Yrotation
  JOINT Spine
  {
    OFFSET 0 10 0
    CHANNELS 3 Zrotation Xrotation Yrotation
    JOINT Neck
    {
      OFFSET 0 30 -6.70137e-005
      CHANNELS 3 Zrotation Xrotation Yrotation
      JOINT Head
      {
        OFFSET 0 7.99999 0
        CHANNELS 3 Zrotation Xrotation Yrotation
        End Site
        {
          OFFSET 0 10 0
        }
      }
    }
    JOINT LeftArm
    {
      OFFSET 15 30 0
      CHANNELS 3 Zrotation Xrotation Yrotation
      JOINT LeftForeArm
      {
        OFFSET 25 0 2.26341e-005
        CHANNELS 3 Zrotation Xrotation Yrotation
        JOINT LeftHand
        {
          OFFSET 25 0 -1.30187e-005
          CHANNELS 3 Zrotation Xrotation Yrotation
          End Site
          {
            OFFSET 10 0 0
          }
        }
      }
    }
    JOINT RightArm
    {
      OFFSET -15 30 0
      CHANNELS 3 Zrotation Xrotation Yrotation
      JOINT RightForeArm
      {
        OFFSET -25 -4.37399e-005 5.06614e-005
        CHANNELS 3 Zrotation Xrotation Yrotation
        JOINT RightHand
        {
          OFFSET -25 0 0
          CHANNELS 3 Zrotation Xrotation Yrotation
          End Site
          {
            OFFSET -10 0 0
          }
        }
      }
    }
  }
  JOINT LeftUpLeg
  {
    OFFSET 9.99999 -10 0
    CHANNELS 3 Zrotation Xrotation Yrotation
    JOINT LeftLeg
    {
      OFFSET 0.000185763 -35.0001 0.0027445
      CHANNELS 3 Zrotation Xrotation Yrotation
      JOINT LeftToe
      {
        OFFSET 0 -40.0001 0
        CHANNELS 3 Zrotation Xrotation Yrotation
        JOINT LeftToeEnd
        {
          OFFSET 0 0 0
          CHANNELS 3 Zrotation Xrotation Yrotation
          End Site
          {
            OFFSET 0 0 15
          }
        }
      }
    }
  }
  JOINT RightUpLeg
  {
    OFFSET -9.99999 -10 0
    CHANNELS 3 Zrotation Xrotation Yrotation
    JOINT RightLeg
    {
      OFFSET -0.000133699 -35 0.00119423
      CHANNELS 3 Zrotation Xrotation Yrotation
      JOINT RightToe
      {
        OFFSET 0 -40.0001 -1.54961e-005
        CHANNELS 3 Zrotation Xrotation Yrotation
        JOINT RightToeEnd
        {
          OFFSET 0 0 0
          CHANNELS 3 Zrotation Xrotation Yrotation
          End Site
          {
            OFFSET 0 0 15
          }
        }
      }
    }
  }
}
MOTION
Frames:	19
Frame Time:	0.0333333
5.00289 87.323 -77.5954 -1.05753 8.48421 -3.93745 1.91067 4.2081 1.39556 -4.92393 -17.7969 -2.0545 8.1707 33.0573 -5.22193 -87.0553 14.4346 -1.00357 12.2738 -3.19991 -24.785 -0.437037 5.69706 -2.45385 91.3131 12.8293 1.87149 -15.4474 -4.63056 26.3163 0.535069 3.72355 -0.66124 0.375862 -17.2266 -0.207731 -0.0251339 28.8626 -0.558169 1.5492 -20.0005 4.34709 4.85314e-020 7.76503e-019 2.98177e-016 5.41141 -14.258 5.14635 -0.00603234 24.2039 0.417647 -3.47152 -17.9883 -6.86118 -9.70628e-020 -3.88251e-019 7.95139e-016 
5.0139 87.3042 -77.5846 -1.31205 8.48234 -4.12006 2.22165 4.32272 1.4323 -5.10962 -17.5529 -2.08356 8.42393 32.9687 -5.33087 -87.1335 14.2868 -0.965184 12.1581 -3.16466 -24.5745 -0.635294 4.71487 -2.29376 91.2373 12.9789 1.89353 -15.4596 -4.6382 26.3415 0.544106 3.87107 -0.662856 0.648371 -17.3805 -0.256309 -0.0206632 29.263 -0.56034 1.58992 -20.2195 4.60109 -8.84485e-018 0 1.98785e-016 5.67333 -14.1736 5.08888 -0.00464709 24.0304 0.417081 -3.43284 -17.8838 -6.57493 -1.45594e-019 -3.88251e-019 -7.95139e-016 
5.04335 87.2845 -77.601 -1.35975 8.48719 -4.12518 2.32602 4.34953 1.27653 -5.3191 -17.0643 -2.11365 8.81691 32.7917 -5.33634 -87.0055 14.0617 -1.14735 12.5094 -3.27771 -25.2031 -0.0742586 7.66343 -2.68019 91.1595 13.2515 1.88225 -15.4429 -4.62398 26.307 0.561699 4.07962 -0.681509 0.727123 -17.4304 -0.181807 -0.0193173 29.3829 -0.560999 1.53333 -20.2954 4.49195 1.06921e-018 9.70628e-020 -0 5.73267 -14.2525 5.1768 -0.0060721 24.2089 0.417663 -3.42246 -17.9349 -6.59494 -2.32951e-018 -6.21202e-018 7.95139e-016 
5.03952 87.2954 -77.5497 -1.18346 8.33396 -4.69731 2.12155 4.57902 1.70215 -5.22668 -17.1716 -1.95406 8.75578 33.02 -5.32248 -86.9917 13.9187 -1.12035 12.5564 -3.34445 -25.3643 -0.150116 7.97774 -2.59358 91.1077 13.4308 1.97918 -15.4218 -4.60121 26.2533 0.581425 4.18788 -0.748695 0.515613 -17.0011 -0.185293 -0.0221981 29.1259 -0.559592 1.66075 -20.3063 5.0754 5.97543e-018 0 -0 5.58308 -14.192 5.40694 -0.00716091 24.345 0.418111 -3.3693 -18.0548 -6.30694 1.72418e-034 6.21202e-018 -1.59028e-015 
5.05643 87.2824 -77.5376 -1.26901 8.31548 -4.72187 2.24589 4.71556 1.84221 -5.18517 -17.316 -1.89809 8.6414 33.4987 -5.33682 -86.9481 14.1608 -1.17379 12.6744 -3.35078 -25.5335 -0.0612934 7.45635 -2.74771 91.0128 13.4626 2.08609 -15.4573 -4.64167 26.344 0.534098 4.06425 -0.693461 0.616181 -17.0505 -0.0786777 -0.0202917 29.2961 -0.560522 1.65301 -20.4365 5.03314 9.70628e-019 0 -0 5.66598 -14.1175 5.40154 -0.00631233 24.239 0.417761 -3.3761 -17.9497 -6.27836 -9.47879e-023 3.79152e-022 -0 
5.07459 87.2711 -77.5662 -1.27409 8.25408 -4.80363 2.31287 4.98961 1.85981 -5.17583 -17.2563 -1.79004 8.49001 33.6292 -5.12811 -86.913 14.1814 -1.25584 12.8387 -3.59893 -26.0952 -0.408118 8.19017 -2.37701 90.8828 13.9286 2.13432 -15.6302 -4.75673 26.7012 0.57444 4.06327 -0.71369 0.587208 -17.029 -0.251204 -0.0188752 29.369 -0.560923 1.65741 -20.4301 5.09084 -8.34134e-021 0 -0 5.66373 -14.15 5.41883 -0.00738464 24.3844 0.420106 -3.35686 -18.0422 -6.22913 -7.76503e-019 6.21202e-018 1.59028e-015 
5.08927 87.2316 -77.6603 -1.31449 8.40078 -4.77559 2.38901 5.12489 1.89782 -5.2207 -17.0739 -1.81918 8.6142 33.7896 -5.25691 -86.7597 14.6612 -1.57978 12.7902 -3.59241 -25.9996 -0.28963 7.47373 -2.39495 90.7883 14.4625 2.0578 -15.9042 -4.97967 27.3189 0.53281 3.48777 -0.644044 0.663109 -17.4387 -0.224504 -0.0156359 29.7071 -0.562801 1.6306 -20.5033 5.05201 4.54982e-021 0 -1.98785e-016 5.74976 -14.557 5.49733 -0.000503294 24.6714 0.396724 -3.34685 -18.0186 -6.23532 1.3877e-019 5.45978e-020 7.95139e-016 
5.11956 87.1487 -77.7351 -1.31723 8.48268 -4.56808 2.43092 5.3268 1.74333 -5.085 -16.6826 -1.82466 8.38356 33.5199 -5.23724 -86.7272 15.6284 -1.30677 13.2693 -3.87731 -27.0369 -0.1889 6.88021 -2.54182 90.6945 15.2741 1.97149 -16.2871 -5.31176 28.183 0.448721 2.64707 -0.451283 0.735338 -18.0218 0.0511588 -0.012687 30.3759 -0.566614 1.595 -20.8321 4.6664 7.76503e-019 -4.96962e-017 1.98785e-016 5.73731 -14.992 5.3892 -0.00102854 25.319 0.384641 -3.34757 -18.3857 -6.38988 0 1.2424e-017 -0 
5.17296 87.0354 -77.9193 -1.57692 8.83477 -4.51981 2.82114 5.76787 1.88438 -5.19492 -16.9296 -1.81017 8.60591 33.5247 -5.35482 -86.5465 17.1715 -1.5866 13.824 -4.33086 -28.3569 -0.221759 5.48905 -2.48128 90.3314 15.92 2.40387 -16.6086 -5.55256 28.8544 0.482967 2.55761 -0.452415 0.985081 -19.1079 -0.178019 -0.0126512 31.3742 -0.5743 1.58546 -20.9656 4.83613 -9.70628e-020 -6.21202e-018 -3.97569e-016 6.01928 -15.823 5.3742 0.0133998 25.9005 0.338585 -3.29745 -18.4704 -6.27649 -7.76503e-019 0 1.59028e-015 
5.29379 86.9824 -78.1328 -1.45454 8.97401 -4.34849 2.81578 6.3991 1.4923 -5.04614 -16.7824 -1.75703 8.39745 33.2605 -4.91186 -86.6054 18.5721 -1.41473 14.7742 -5.04351 -30.4886 -0.1425 3.78269 -2.57676 90.1046 17.7156 1.98427 -17.5353 -6.35703 30.9819 0.482987 1.44172 -0.40606 0.763491 -19.6351 -0.00891318 0.0233097 32.3788 -0.53987 1.92697 -21.8743 4.57512 -9.31803e-018 4.96962e-017 -1.98785e-016 5.69267 -16.5142 4.85247 0.0164011 26.5646 0.318212 -3.11777 -18.5931 -5.86334 -5.15646e-020 -1.81993e-020 -2.38542e-015 
5.30356 86.797 -78.417 -2.15018 9.21509 -4.25467 3.49494 7.38988 1.78203 -4.81627 -16.7927 -1.62248 8.33908 33.0287 -4.92479 -86.5088 20.5455 -1.37002 15.8866 -5.98365 -33.0606 -0.219983 0.834651 -2.59688 89.8004 19.084 2.16818 -18.5279 -7.25851 33.2283 0.513587 0.415735 -0.323827 1.65478 -21.0641 0.207682 0.0186663 33.7489 -0.548801 1.82365 -22.0069 4.36979 1.16475e-017 -9.93923e-017 -0 6.57827 -17.2471 5.10766 0.0382595 27.1201 0.25789 -3.21724 -18.5811 -6.05363 2.31046e-022 0 7.95139e-016 
5.33651 86.4875 -78.7502 -2.17379 9.67172 -3.98747 3.33759 8.45314 1.68841 -5.22633 -17.4097 -2.49439 9.97456 33.596 -6.72123 -86.1104 21.5868 -1.73567 16.8121 -6.96023 -35.4033 -0.257678 -0.0488972 -2.4188 89.5371 20.5471 2.71257 -19.5924 -8.31487 35.7126 0.547432 -0.619247 -0.296699 1.76549 -23.0936 0.345463 -0.00700651 35.4053 -0.5781 1.5072 -21.789 4.08936 -2.3697e-023 -1.51661e-021 1.98785e-016 6.78752 -19.0845 5.39623 0.0727904 29.203 0.162095 -3.25128 -19.2742 -6.45567 8.29394e-023 1.89576e-022 -7.95139e-016 
5.4444 86.2358 -79.0837 -2.24739 10.3423 -3.65157 3.44653 9.43786 1.429 -4.99217 -17.5477 -2.45477 9.60125 33.3352 -6.34679 -85.9237 22.4102 -1.93094 17.9879 -8.2711 -38.4193 -0.434283 0.883149 -2.15322 89.331 21.9606 2.81834 -20.9278 -9.82531 39.0281 0.564608 -1.5449 -0.21434 1.9095 -25.1108 0.536247 -0.0447097 36.9797 -0.543687 1.5285 -22.2291 3.66481 -3.88251e-019 4.96962e-017 1.98785e-016 6.86113 -21.0287 5.2066 0.117811 30.816 0.0494058 -3.1796 -19.6466 -6.4371 -9.47879e-023 -1.51661e-021 -0 
5.53275 85.9146 -79.4367 -2.1547 11.3408 -3.46216 3.31237 10.4219 1.33162 -4.76786 -17.5899 -2.49599 9.33335 32.2884 -6.26129 -85.3162 23.5038 -2.63556 18.9102 -9.32874 -40.7731 -0.46148 0.390964 -2.07236 89.0587 23.033 3.56719 -21.9893 -11.1315 41.732 0.618583 -2.31537 -0.217056 1.9539 -27.5429 0.823775 -0.110711 38.6287 -0.492272 1.57875 -22.6236 3.43118 -1.55301e-018 -4.96962e-017 -0 6.87264 -23.5062 5.26672 0.188827 32.7874 -0.101527 -3.11472 -20.1615 -6.53584 -3.55455e-023 3.79152e-022 -0 
5.63761 85.4267 -79.826 -2.28786 12.7921 -3.40503 3.56001 11.3633 1.39627 -4.77601 -18.3359 -2.52619 8.90467 31.8387 -6.24359 -84.6704 24.8828 -3.40441 19.9432 -10.3382 -43.1064 -0.23328 -0.347224 -2.34338 88.2058 24.1634 4.78865 -22.7711 -12.1369 43.7533 0.703762 -2.86962 -0.302845 2.49549 -30.6326 1.52154 -0.222134 40.828 -0.406854 1.58834 -23.2456 2.98352 7.76503e-019 4.96962e-017 9.93923e-017 7.31044 -26.7205 5.73204 0.310142 35.2007 -0.311303 -3.08298 -20.8421 -6.83143 -7.76503e-019 0 -7.95139e-016 
5.69905 84.866 -80.2965 -2.01364 14.4364 -3.12529 3.24206 12.6216 1.47902 -4.89473 -19.4161 -2.45248 8.94356 31.2302 -5.89602 -83.4291 25.9761 -5.10623 20.5801 -11.1946 -44.8536 -0.287199 -0.357657 -2.25183 87.4609 25.2072 6.21389 -23.6221 -13.3694 46.1059 0.796868 -2.65941 -0.266244 2.53252 -34.172 1.91976 -0.369272 43.0333 -0.294418 1.60136 -23.6452 2.4748 -3.88251e-019 -1.98785e-016 -0 7.31073 -30.46 5.90401 0.48145 38.0617 -0.57191 -3.11196 -21.631 -7.41434 -7.76503e-019 -1.86361e-017 -1.59028e-015 
5.85443 84.1803 -80.8079 -1.5429 16.3274 -2.78807 2.99993 13.8396 1.05782 -5.38999 -20.1017 -2.68751 9.19238 29.7834 -5.70571 -82.3162 26.6938 -6.76504 21.0237 -11.9379 -46.2893 -0.354294 -0.822642 -2.08698 86.166 26.9387 7.67758 -24.4663 -14.9543 48.9681 0.805711 -3.38247 -0.0924859 1.94442 -38.1987 1.74275 -0.563964 45.4998 -0.123808 1.86606 -24.1636 2.58853 -1.94126e-019 9.93923e-017 2.48481e-017 6.86536 -34.8242 5.7384 0.72068 41.4566 -0.881873 -3.027 -22.7884 -7.65709 -0 0 7.95139e-016 
5.97452 83.4087 -81.2984 -1.40737 18.7624 -2.11763 3.11056 14.8237 0.792684 -5.52658 -21.7555 -2.97586 8.96694 28.7569 -5.81685 -80.679 27.8179 -8.84121 21.4184 -12.49 -47.3994 -0.311293 -1.39975 -2.09108 84.8045 27.5138 9.47142 -24.9757 -15.9363 50.759 0.841457 -3.87366 -0.150078 1.76172 -42.927 1.64457 -0.844078 48.0355 0.111485 2.02271 -24.6079 2.29026 -3.88251e-019 9.93923e-017 4.96962e-017 6.94126 -39.6247 5.98481 1.02653 44.6334 -1.31728 -3.41033 -23.5839 -8.62654 9.31803e-018 0 -1.59028e-015 
6.06149 82.4973 -81.6498 -1.49856 21.1596 -1.88136 3.37593 15.9586 0.730328 -5.77933 -23.0319 -3.178 8.82175 27.384 -5.68133 -79.3134 28.2838 -10.8003 21.7372 -12.9649 -48.3111 -0.520248 -1.67018 -1.99096 83.2647 28.2959 11.3759 -25.3717 -16.7764 52.2935 0.883731 -4.66803 -0.213404 2.1324 -47.6013 1.94466 -1.17966 51.0217 0.374201 2.1956 -25.4818 2.48372 1.55301e-018 0 -9.93923e-017 7.68244 -44.3152 6.74433 1.36657 47.9299 -1.85979 -4.16934 -24.4358 -9.44356 -1.33558e-016 1.86361e-017 -1.59028e-015 
